{
    "asset" : {
        "generator" : "Khronos glTF Blender I/O v3.2.40",
        "version" : "2.0"
    },
    "scene" : 0,
    "scenes" : [
        {
            "name" : "Scene",
            "nodes" : [
                0,
                1,
                2,
                3,
                4
            ]
        }
    ],
    "nodes" : [
        {
            "mesh" : 0,
            "name" : "Ground",
            "translation" : [
                0,
                0.6070458292961121,
                0
            ]
        },
        {
            "mesh" : 1,
            "name" : "House",
            "translation" : [
                0.3716440200805664,
                1.3266396522521973,
                5.288789749145508
            ]
        },
        {
            "mesh" : 2,
            "name" : "Tower 1",
            "translation" : [
                0.3716440200805664,
                2.7899279594421387,
                4.026090621948242
            ]
        },
        {
            "mesh" : 3,
            "name" : "House.001",
            "rotation" : [
                0,
                -1,
                0,
                1.6292068494294654e-07
            ],
            "translation" : [
                0.37051457166671753,
                1.3266396522521973,
                -5.077545642852783
            ]
        },
        {
            "mesh" : 4,
            "name" : "Tower",
            "rotation" : [
                0,
                -1,
                0,
                1.6292068494294654e-07
            ],
            "translation" : [
                0.3705146610736847,
                2.7899279594421387,
                -3.996933937072754
            ]
        }
    ],
    "meshes" : [
        {
            "name" : "Cube.001",
            "primitives" : [
                {
                    "attributes" : {
                        "POSITION" : 0,
                        "NORMAL" : 1,
                        "TEXCOORD_0" : 2
                    },
                    "indices" : 3
                }
            ]
        },
        {
            "name" : "Cube.002",
            "primitives" : [
                {
                    "attributes" : {
                        "POSITION" : 4,
                        "NORMAL" : 5,
                        "TEXCOORD_0" : 6
                    },
                    "indices" : 7
                }
            ]
        },
        {
            "name" : "Cylinder",
            "primitives" : [
                {
                    "attributes" : {
                        "POSITION" : 8,
                        "NORMAL" : 9,
                        "TEXCOORD_0" : 10
                    },
                    "indices" : 11
                }
            ]
        },
        {
            "name" : "Cube.003",
            "primitives" : [
                {
                    "attributes" : {
                        "POSITION" : 12,
                        "NORMAL" : 13,
                        "TEXCOORD_0" : 14
                    },
                    "indices" : 7
                }
            ]
        },
        {
            "name" : "Cylinder.002",
            "primitives" : [
                {
                    "attributes" : {
                        "POSITION" : 15,
                        "NORMAL" : 16,
                        "TEXCOORD_0" : 17
                    },
                    "indices" : 11
                }
            ]
        }
    ],
    "accessors" : [
        {
            "bufferView" : 0,
            "componentType" : 5126,
            "count" : 352,
            "max" : [
                4.203786849975586,
                0.5082069635391235,
                6.123303413391113
            ],
            "min" : [
                -4.151931285858154,
                -0.8175248503684998,
                -6.099837779998779
            ],
            "type" : "VEC3"
        },
        {
            "bufferView" : 1,
            "componentType" : 5126,
            "count" : 352,
            "type" : "VEC3"
        },
        {
            "bufferView" : 2,
            "componentType" : 5126,
            "count" : 352,
            "type" : "VEC2"
        },
        {
            "bufferView" : 3,
            "componentType" : 5123,
            "count" : 528,
            "type" : "SCALAR"
        },
        {
            "bufferView" : 4,
            "componentType" : 5126,
            "count" : 24,
            "max" : [
                0.2197256237268448,
                0.21972551941871643,
                0.4113212525844574
            ],
            "min" : [
                -0.2197256237268448,
                -0.21972578763961792,
                -0.41132158041000366
            ],
            "type" : "VEC3"
        },
        {
            "bufferView" : 5,
            "componentType" : 5126,
            "count" : 24,
            "type" : "VEC3"
        },
        {
            "bufferView" : 6,
            "componentType" : 5126,
            "count" : 24,
            "type" : "VEC2"
        },
        {
            "bufferView" : 7,
            "componentType" : 5123,
            "count" : 36,
            "type" : "SCALAR"
        },
        {
            "bufferView" : 8,
            "componentType" : 5126,
            "count" : 72,
            "max" : [
                0.1642642319202423,
                2.039214611053467,
                0.19400858879089355
            ],
            "min" : [
                -0.1676522195339203,
                -1.710608959197998,
                -0.1892554759979248
            ],
            "type" : "VEC3"
        },
        {
            "bufferView" : 9,
            "componentType" : 5126,
            "count" : 72,
            "type" : "VEC3"
        },
        {
            "bufferView" : 10,
            "componentType" : 5126,
            "count" : 72,
            "type" : "VEC2"
        },
        {
            "bufferView" : 11,
            "componentType" : 5123,
            "count" : 114,
            "type" : "SCALAR"
        },
        {
            "bufferView" : 12,
            "componentType" : 5126,
            "count" : 24,
            "max" : [
                0.2197256237268448,
                0.21972551941871643,
                0.4113212525844574
            ],
            "min" : [
                -0.2197256237268448,
                -0.21972578763961792,
                -0.41132158041000366
            ],
            "type" : "VEC3"
        },
        {
            "bufferView" : 13,
            "componentType" : 5126,
            "count" : 24,
            "type" : "VEC3"
        },
        {
            "bufferView" : 14,
            "componentType" : 5126,
            "count" : 24,
            "type" : "VEC2"
        },
        {
            "bufferView" : 15,
            "componentType" : 5126,
            "count" : 72,
            "max" : [
                0.1642642319202423,
                2.039214611053467,
                0.19400858879089355
            ],
            "min" : [
                -0.1676522195339203,
                -1.710608959197998,
                -0.1892554759979248
            ],
            "type" : "VEC3"
        },
        {
            "bufferView" : 16,
            "componentType" : 5126,
            "count" : 72,
            "type" : "VEC3"
        },
        {
            "bufferView" : 17,
            "componentType" : 5126,
            "count" : 72,
            "type" : "VEC2"
        }
    ],
    "bufferViews" : [
        {
            "buffer" : 0,
            "byteLength" : 4224,
            "byteOffset" : 0
        },
        {
            "buffer" : 0,
            "byteLength" : 4224,
            "byteOffset" : 4224
        },
        {
            "buffer" : 0,
            "byteLength" : 2816,
            "byteOffset" : 8448
        },
        {
            "buffer" : 0,
            "byteLength" : 1056,
            "byteOffset" : 11264
        },
        {
            "buffer" : 0,
            "byteLength" : 288,
            "byteOffset" : 12320
        },
        {
            "buffer" : 0,
            "byteLength" : 288,
            "byteOffset" : 12608
        },
        {
            "buffer" : 0,
            "byteLength" : 192,
            "byteOffset" : 12896
        },
        {
            "buffer" : 0,
            "byteLength" : 72,
            "byteOffset" : 13088
        },
        {
            "buffer" : 0,
            "byteLength" : 864,
            "byteOffset" : 13160
        },
        {
            "buffer" : 0,
            "byteLength" : 864,
            "byteOffset" : 14024
        },
        {
            "buffer" : 0,
            "byteLength" : 576,
            "byteOffset" : 14888
        },
        {
            "buffer" : 0,
            "byteLength" : 228,
            "byteOffset" : 15464
        },
        {
            "buffer" : 0,
            "byteLength" : 288,
            "byteOffset" : 15692
        },
        {
            "buffer" : 0,
            "byteLength" : 288,
            "byteOffset" : 15980
        },
        {
            "buffer" : 0,
            "byteLength" : 192,
            "byteOffset" : 16268
        },
        {
            "buffer" : 0,
            "byteLength" : 864,
            "byteOffset" : 16460
        },
        {
            "buffer" : 0,
            "byteLength" : 864,
            "byteOffset" : 17324
        },
        {
            "buffer" : 0,
            "byteLength" : 576,
            "byteOffset" : 18188
        }
    ],
    "buffers" : [
        {
            "byteLength" : 18764,
            "uri" : "Ground-wave.bin"
        }
    ]
}
