{
    "asset" : {
        "generator" : "Khronos glTF Blender I/O v3.2.40",
        "version" : "2.0"
    },
    "scene" : 0,
    "scenes" : [
        {
            "name" : "Scene",
            "nodes" : [
                0,
                1
            ]
        }
    ],
    "nodes" : [
        {
            "mesh" : 0,
            "name" : "bg",
            "translation" : [
                -0.002139568328857422,
                0.0015810728073120117,
                0.0046333689242601395
            ]
        },
        {
            "mesh" : 1,
            "name" : "books",
            "rotation" : [
                -0.031426530331373215,
                0.9671004414558411,
                0.06881000101566315,
                0.24288761615753174
            ],
            "scale" : [
                1.4201122522354126,
                1.420111894607544,
                1.4201122522354126
            ],
            "translation" : [
                0.008915955200791359,
                0.9622319340705872,
                -0.031224418431520462
            ]
        }
    ],
    "materials" : [
        {
            "doubleSided" : true,
            "name" : "Book bg",
            "pbrMetallicRoughness" : {
                "baseColorFactor" : [
                    0.308648943901062,
                    0.5277174115180969,
                    0.12676489353179932,
                    1
                ],
                "metallicFactor" : 0,
                "roughnessFactor" : 0.5
            }
        },
        {
            "doubleSided" : true,
            "name" : "Book.001",
            "pbrMetallicRoughness" : {
                "baseColorFactor" : [
                    0.8688846230506897,
                    0.8244521617889404,
                    0.5256338715553284,
                    1
                ],
                "metallicFactor" : 0
            }
        },
        {
            "doubleSided" : true,
            "name" : "sampul",
            "pbrMetallicRoughness" : {
                "baseColorFactor" : [
                    0.06085168197751045,
                    0.142392098903656,
                    0.05194225534796715,
                    1
                ],
                "metallicFactor" : 0
            }
        },
        {
            "doubleSided" : true,
            "name" : "Book",
            "pbrMetallicRoughness" : {
                "baseColorFactor" : [
                    0.8353492021560669,
                    0.8412019610404968,
                    0.3188173174858093,
                    1
                ],
                "metallicFactor" : 0
            }
        },
        {
            "doubleSided" : true,
            "name" : "sampul blue",
            "pbrMetallicRoughness" : {
                "baseColorFactor" : [
                    0.11493167281150818,
                    0.10367027670145035,
                    0.02352437563240528,
                    1
                ],
                "metallicFactor" : 0
            }
        },
        {
            "doubleSided" : true,
            "name" : "sampul lain",
            "pbrMetallicRoughness" : {
                "baseColorFactor" : [
                    0.35055387020111084,
                    0.04031054675579071,
                    0.027729753404855728,
                    1
                ],
                "metallicFactor" : 0
            }
        }
    ],
    "meshes" : [
        {
            "name" : "Plane.003",
            "primitives" : [
                {
                    "attributes" : {
                        "POSITION" : 0,
                        "NORMAL" : 1,
                        "TEXCOORD_0" : 2
                    },
                    "indices" : 3,
                    "material" : 0
                }
            ]
        },
        {
            "name" : "Plane.007",
            "primitives" : [
                {
                    "attributes" : {
                        "POSITION" : 4,
                        "NORMAL" : 5,
                        "TEXCOORD_0" : 6
                    },
                    "indices" : 7,
                    "material" : 1
                },
                {
                    "attributes" : {
                        "POSITION" : 8,
                        "NORMAL" : 9,
                        "TEXCOORD_0" : 10
                    },
                    "indices" : 11,
                    "material" : 2
                },
                {
                    "attributes" : {
                        "POSITION" : 12,
                        "NORMAL" : 13,
                        "TEXCOORD_0" : 14
                    },
                    "indices" : 15,
                    "material" : 3
                },
                {
                    "attributes" : {
                        "POSITION" : 16,
                        "NORMAL" : 17,
                        "TEXCOORD_0" : 18
                    },
                    "indices" : 19,
                    "material" : 4
                },
                {
                    "attributes" : {
                        "POSITION" : 20,
                        "NORMAL" : 21,
                        "TEXCOORD_0" : 22
                    },
                    "indices" : 23,
                    "material" : 5
                }
            ]
        }
    ],
    "accessors" : [
        {
            "bufferView" : 0,
            "componentType" : 5126,
            "count" : 8,
            "max" : [
                5,
                5.754864692687988,
                4.999999523162842
            ],
            "min" : [
                -5,
                0,
                -5
            ],
            "type" : "VEC3"
        },
        {
            "bufferView" : 1,
            "componentType" : 5126,
            "count" : 8,
            "type" : "VEC3"
        },
        {
            "bufferView" : 2,
            "componentType" : 5126,
            "count" : 8,
            "type" : "VEC2"
        },
        {
            "bufferView" : 3,
            "componentType" : 5123,
            "count" : 12,
            "type" : "SCALAR"
        },
        {
            "bufferView" : 4,
            "componentType" : 5126,
            "count" : 108,
            "max" : [
                0.26967528462409973,
                0.1390332579612732,
                0.26372432708740234
            ],
            "min" : [
                -0.2634657323360443,
                -0.01475924625992775,
                -0.2576735019683838
            ],
            "type" : "VEC3"
        },
        {
            "bufferView" : 5,
            "componentType" : 5126,
            "count" : 108,
            "type" : "VEC3"
        },
        {
            "bufferView" : 6,
            "componentType" : 5126,
            "count" : 108,
            "type" : "VEC2"
        },
        {
            "bufferView" : 7,
            "componentType" : 5123,
            "count" : 108,
            "type" : "SCALAR"
        },
        {
            "bufferView" : 8,
            "componentType" : 5126,
            "count" : 152,
            "max" : [
                0.23415720462799072,
                0.27195531129837036,
                0.3736160397529602
            ],
            "min" : [
                -0.41609063744544983,
                0.13866418600082397,
                -0.3028566539287567
            ],
            "type" : "VEC3"
        },
        {
            "bufferView" : 9,
            "componentType" : 5126,
            "count" : 152,
            "type" : "VEC3"
        },
        {
            "bufferView" : 10,
            "componentType" : 5126,
            "count" : 152,
            "type" : "VEC2"
        },
        {
            "bufferView" : 11,
            "componentType" : 5123,
            "count" : 252,
            "type" : "SCALAR"
        },
        {
            "bufferView" : 12,
            "componentType" : 5126,
            "count" : 152,
            "max" : [
                0.21987491846084595,
                0.3070736229419708,
                0.35242488980293274
            ],
            "min" : [
                -0.3789648413658142,
                0.15282532572746277,
                -0.27818727493286133
            ],
            "type" : "VEC3"
        },
        {
            "bufferView" : 13,
            "componentType" : 5126,
            "count" : 152,
            "type" : "VEC3"
        },
        {
            "bufferView" : 14,
            "componentType" : 5126,
            "count" : 152,
            "type" : "VEC2"
        },
        {
            "bufferView" : 15,
            "componentType" : 5123,
            "count" : 252,
            "type" : "SCALAR"
        },
        {
            "bufferView" : 16,
            "componentType" : 5126,
            "count" : 174,
            "max" : [
                0.1806967407464981,
                0.04258100688457489,
                0.22210225462913513
            ],
            "min" : [
                -0.16011326014995575,
                -0.022456953302025795,
                -0.2297389954328537
            ],
            "type" : "VEC3"
        },
        {
            "bufferView" : 17,
            "componentType" : 5126,
            "count" : 174,
            "type" : "VEC3"
        },
        {
            "bufferView" : 18,
            "componentType" : 5126,
            "count" : 174,
            "type" : "VEC2"
        },
        {
            "bufferView" : 19,
            "componentType" : 5123,
            "count" : 174,
            "type" : "SCALAR"
        },
        {
            "bufferView" : 20,
            "componentType" : 5126,
            "count" : 174,
            "max" : [
                0.2801743149757385,
                0.14698562026023865,
                0.27501460909843445
            ],
            "min" : [
                -0.2745627462863922,
                0.05567298084497452,
                -0.2679124176502228
            ],
            "type" : "VEC3"
        },
        {
            "bufferView" : 21,
            "componentType" : 5126,
            "count" : 174,
            "type" : "VEC3"
        },
        {
            "bufferView" : 22,
            "componentType" : 5126,
            "count" : 174,
            "type" : "VEC2"
        },
        {
            "bufferView" : 23,
            "componentType" : 5123,
            "count" : 174,
            "type" : "SCALAR"
        }
    ],
    "bufferViews" : [
        {
            "buffer" : 0,
            "byteLength" : 96,
            "byteOffset" : 0
        },
        {
            "buffer" : 0,
            "byteLength" : 96,
            "byteOffset" : 96
        },
        {
            "buffer" : 0,
            "byteLength" : 64,
            "byteOffset" : 192
        },
        {
            "buffer" : 0,
            "byteLength" : 24,
            "byteOffset" : 256
        },
        {
            "buffer" : 0,
            "byteLength" : 1296,
            "byteOffset" : 280
        },
        {
            "buffer" : 0,
            "byteLength" : 1296,
            "byteOffset" : 1576
        },
        {
            "buffer" : 0,
            "byteLength" : 864,
            "byteOffset" : 2872
        },
        {
            "buffer" : 0,
            "byteLength" : 216,
            "byteOffset" : 3736
        },
        {
            "buffer" : 0,
            "byteLength" : 1824,
            "byteOffset" : 3952
        },
        {
            "buffer" : 0,
            "byteLength" : 1824,
            "byteOffset" : 5776
        },
        {
            "buffer" : 0,
            "byteLength" : 1216,
            "byteOffset" : 7600
        },
        {
            "buffer" : 0,
            "byteLength" : 504,
            "byteOffset" : 8816
        },
        {
            "buffer" : 0,
            "byteLength" : 1824,
            "byteOffset" : 9320
        },
        {
            "buffer" : 0,
            "byteLength" : 1824,
            "byteOffset" : 11144
        },
        {
            "buffer" : 0,
            "byteLength" : 1216,
            "byteOffset" : 12968
        },
        {
            "buffer" : 0,
            "byteLength" : 504,
            "byteOffset" : 14184
        },
        {
            "buffer" : 0,
            "byteLength" : 2088,
            "byteOffset" : 14688
        },
        {
            "buffer" : 0,
            "byteLength" : 2088,
            "byteOffset" : 16776
        },
        {
            "buffer" : 0,
            "byteLength" : 1392,
            "byteOffset" : 18864
        },
        {
            "buffer" : 0,
            "byteLength" : 348,
            "byteOffset" : 20256
        },
        {
            "buffer" : 0,
            "byteLength" : 2088,
            "byteOffset" : 20604
        },
        {
            "buffer" : 0,
            "byteLength" : 2088,
            "byteOffset" : 22692
        },
        {
            "buffer" : 0,
            "byteLength" : 1392,
            "byteOffset" : 24780
        },
        {
            "buffer" : 0,
            "byteLength" : 348,
            "byteOffset" : 26172
        }
    ],
    "buffers" : [
        {
            "byteLength" : 26520,
            "uri" : "materi.bin"
        }
    ]
}
