{
    "asset" : {
        "generator" : "Khronos glTF Blender I/O v3.2.40",
        "version" : "2.0"
    },
    "scene" : 0,
    "scenes" : [
        {
            "name" : "Scene",
            "nodes" : [
                0,
                1
            ]
        }
    ],
    "nodes" : [
        {
            "mesh" : 0,
            "name" : "bg",
            "translation" : [
                -1.5903267860412598,
                0.17094573378562927,
                0.08971166610717773
            ]
        },
        {
            "mesh" : 1,
            "name" : "user",
            "rotation" : [
                -0.14518283307552338,
                0.14518281817436218,
                -0.6920418739318848,
                0.6920419335365295
            ],
            "translation" : [
                -2.766794443130493,
                1.381316900253296,
                -0.19587931036949158
            ]
        }
    ],
    "materials" : [
        {
            "doubleSided" : true,
            "name" : "Material.001",
            "pbrMetallicRoughness" : {
                "baseColorFactor" : [
                    0.0781872570514679,
                    0.10946162790060043,
                    0.1384316235780716,
                    1
                ],
                "metallicFactor" : 0,
                "roughnessFactor" : 0.8727272748947144
            }
        },
        {
            "doubleSided" : true,
            "name" : "Material",
            "pbrMetallicRoughness" : {
                "baseColorFactor" : [
                    0.5877395868301392,
                    0.603813648223877,
                    0.3584735095500946,
                    1
                ],
                "metallicFactor" : 0
            }
        },
        {
            "doubleSided" : true,
            "name" : "Material.004",
            "pbrMetallicRoughness" : {
                "baseColorFactor" : [
                    0.4969204068183899,
                    0.35003554821014404,
                    0.23172205686569214,
                    1
                ],
                "metallicFactor" : 0
            }
        }
    ],
    "meshes" : [
        {
            "name" : "Plane",
            "primitives" : [
                {
                    "attributes" : {
                        "POSITION" : 0,
                        "NORMAL" : 1,
                        "TEXCOORD_0" : 2
                    },
                    "indices" : 3,
                    "material" : 0
                }
            ]
        },
        {
            "name" : "Plane.002",
            "primitives" : [
                {
                    "attributes" : {
                        "POSITION" : 4,
                        "NORMAL" : 5,
                        "TEXCOORD_0" : 6
                    },
                    "indices" : 7,
                    "material" : 1
                },
                {
                    "attributes" : {
                        "POSITION" : 8,
                        "NORMAL" : 9,
                        "TEXCOORD_0" : 10
                    },
                    "indices" : 11,
                    "material" : 2
                }
            ]
        }
    ],
    "accessors" : [
        {
            "bufferView" : 0,
            "componentType" : 5126,
            "count" : 8,
            "max" : [
                4,
                4.394874572753906,
                4
            ],
            "min" : [
                -4,
                0,
                -4
            ],
            "type" : "VEC3"
        },
        {
            "bufferView" : 1,
            "componentType" : 5126,
            "count" : 8,
            "type" : "VEC3"
        },
        {
            "bufferView" : 2,
            "componentType" : 5126,
            "count" : 8,
            "type" : "VEC2"
        },
        {
            "bufferView" : 3,
            "componentType" : 5123,
            "count" : 12,
            "type" : "SCALAR"
        },
        {
            "bufferView" : 4,
            "componentType" : 5126,
            "count" : 168,
            "max" : [
                0.503746509552002,
                7.0382184524930835e-09,
                0.5224842429161072
            ],
            "min" : [
                -0.503746509552002,
                -0.11711914092302322,
                -0.5224842429161072
            ],
            "type" : "VEC3"
        },
        {
            "bufferView" : 5,
            "componentType" : 5126,
            "count" : 168,
            "type" : "VEC3"
        },
        {
            "bufferView" : 6,
            "componentType" : 5126,
            "count" : 168,
            "type" : "VEC2"
        },
        {
            "bufferView" : 7,
            "componentType" : 5123,
            "count" : 324,
            "type" : "SCALAR"
        },
        {
            "bufferView" : 8,
            "componentType" : 5126,
            "count" : 192,
            "max" : [
                -0.6093736290931702,
                0.05866946280002594,
                0.2671460807323456
            ],
            "min" : [
                -1.1498007774353027,
                -0.17507487535476685,
                -0.2691405415534973
            ],
            "type" : "VEC3"
        },
        {
            "bufferView" : 9,
            "componentType" : 5126,
            "count" : 192,
            "type" : "VEC3"
        },
        {
            "bufferView" : 10,
            "componentType" : 5126,
            "count" : 192,
            "type" : "VEC2"
        },
        {
            "bufferView" : 11,
            "componentType" : 5123,
            "count" : 372,
            "type" : "SCALAR"
        }
    ],
    "bufferViews" : [
        {
            "buffer" : 0,
            "byteLength" : 96,
            "byteOffset" : 0
        },
        {
            "buffer" : 0,
            "byteLength" : 96,
            "byteOffset" : 96
        },
        {
            "buffer" : 0,
            "byteLength" : 64,
            "byteOffset" : 192
        },
        {
            "buffer" : 0,
            "byteLength" : 24,
            "byteOffset" : 256
        },
        {
            "buffer" : 0,
            "byteLength" : 2016,
            "byteOffset" : 280
        },
        {
            "buffer" : 0,
            "byteLength" : 2016,
            "byteOffset" : 2296
        },
        {
            "buffer" : 0,
            "byteLength" : 1344,
            "byteOffset" : 4312
        },
        {
            "buffer" : 0,
            "byteLength" : 648,
            "byteOffset" : 5656
        },
        {
            "buffer" : 0,
            "byteLength" : 2304,
            "byteOffset" : 6304
        },
        {
            "buffer" : 0,
            "byteLength" : 2304,
            "byteOffset" : 8608
        },
        {
            "buffer" : 0,
            "byteLength" : 1536,
            "byteOffset" : 10912
        },
        {
            "buffer" : 0,
            "byteLength" : 744,
            "byteOffset" : 12448
        }
    ],
    "buffers" : [
        {
            "byteLength" : 13192,
            "uri" : "user.bin"
        }
    ]
}
